<svg xmlns="http://www.w3.org/2000/svg" width="164" height="37" viewBox="0 0 164 37"><path fill="#fff" d="M161 30a2.99 2.99 0 01-3-3.014c-.014-1.644 1.336-2.986 3-2.986 1.61 0 2.986 1.342 3 2.986-.014 1.672-1.39 3.014-3 3.014zm-18.361 7c-1.323 0-2.5-.248-3.155-.536l1.123-3.864c2.112.619 3.503.44 4.425-1.898l.415-1.141L138 8h5.134l4.732 15.95h.214L152.826 8l5.174.027-8.249 23.652C148.588 34.992 146.41 37 142.64 37zm-6.008-29.03v3.78h-3.991v10.723c0 1.972.962 2.404 2.16 2.404.593 0 1.133-.122 1.396-.19L137 28.51c-.514.175-1.449.445-2.806.486-3.583.108-6.349-1.81-6.322-5.713V11.751H125V7.97h2.872V3h4.768v4.97zM121.007 5C119.347 5 118 3.88 118 2.506 118 1.12 119.346 0 121.007 0 122.654 0 124 1.12 124 2.506 124 3.88 122.654 5 121.007 5zM118 29V8h5v21zm-3-28v28h-5V1zM97.37 26c2.835 0 4.63-2.042 4.63-4.45V19c-.611.535-3.083.873-4.319 1.056C95.574 20.38 94 21.197 94 23.155 94 25.028 95.405 26 97.37 26zm-1.387 4C92.003 30 89 27.782 89 23.595c0-4.796 3.872-6.03 7.92-6.473 3.682-.402 5.162-.472 5.162-1.913v-.084c0-2.093-1.25-3.285-3.532-3.285-2.404 0-3.79 1.248-4.28 2.703l-4.59-.665C90.765 9.996 94.134 8 98.522 8c3.98 0 8.477 1.691 8.477 7.32v14.25h-4.728v-2.925h-.163C101.213 28.434 99.257 30 95.983 30zM82.14 20.012V8H87v20.73h-4.711v-3.684h-.215C81.134 27.367 78.96 29 75.872 29 71.82 29 69 26.18 69 21.2V8h4.86v12.443c0 2.632 1.556 4.292 3.892 4.292 2.147 0 4.389-1.565 4.389-4.723zM49 29v-3.145L59.677 12.28v-.177H49.351V8h16.298v3.377L55.485 24.721v.177H66V29zm-19 0v-3.145L40.677 12.28v-.177H30.351V8h16.298v3.377L36.485 24.721v.177H47V29zM24.007 5C22.347 5 21 3.88 21 2.506 21 1.12 22.346 0 24.007 0 25.654 0 27 1.12 27 2.506 27 3.88 25.654 5 24.007 5zM22 29V8h5v21zM20 8l-7.323 21H7.323L0 8h5.167l4.726 15.6h.214L14.847 8z"/></svg>